<?xml version="1.0" encoding="ISO-8859-1" standalone="no"?>
<!DOCTYPE svg PUBLIC "-//W3C//DTD SVG 1.1//EN" "http://www.w3.org/Graphics/SVG/1.1/DTD/svg11.dtd">
<svg version="1.1" baseProfile="full" id="body" width="8in" height="8in" viewBox="0 0 1 1" preserveAspectRatio="none" xmlns="http://www.w3.org/2000/svg" xmlns:xlink="http://www.w3.org/1999/xlink" xmlns:ev="http://www.w3.org/2001/xml-events">
<title>SVG drawing</title>
<desc>This was produced by version 4.4 of GNU libplot, a free library for exporting 2-D vector graphics.</desc>
<rect id="background" x="0" y="0" width="1" height="1" stroke="none" fill="white"/>
<g id="content" transform="translate(0.1875,0.60938) scale(1,-1) scale(0.125) " xml:space="preserve" stroke="black" stroke-linecap="butt" stroke-linejoin="miter" stroke-miterlimit="10.433" stroke-dasharray="none" stroke-dashoffset="0" stroke-opacity="1" fill="none" fill-rule="evenodd" fill-opacity="1" font-style="normal" font-variant="normal" font-weight="normal" font-stretch="normal" font-size-adjust="none" letter-spacing="normal" word-spacing="normal" text-anchor="start">
<rect x="0" y="-0.25" width="0.75" height="0.5" stroke-width="0.0094118" />
<text transform="translate(0.14736,-0.049028) scale(1,-1) scale(0.0069444) " font-family="Helvetica,sans-serif" font-size="20px" stroke="none" fill="black" >START</text>
<line x1="0.75" y1="0" x2="1.25" y2="0" stroke-width="0.0094118" />
<polygon points="1.15,0.025 1.25,0 1.15,-0.025 " stroke-width="0.0094118" fill="black" />
<circle cx="1.5" cy="0" r="0.25" stroke-width="0.0094118" stroke-dasharray="0.05, 0.05" fill="gray" />
<line x1="1.75" y1="0" x2="2.25" y2="0" stroke-width="0.0094118" />
<polygon points="2.15,0.025 2.25,0 2.15,-0.025 " stroke-width="0.0094118" fill="black" />
<circle cx="3.25" cy="0" r="1" stroke-width="0.041667" stroke-dasharray="0.05, 0.05" />
<text transform="translate(2.9915,0.11764) scale(1,-1) scale(0.0069444) " font-family="Helvetica,sans-serif" font-size="20px" stroke="none" fill="black" >This is a</text>
<text transform="translate(2.976,-0.049028) scale(1,-1) scale(0.0069444) " font-family="Helvetica,sans-serif" font-size="20px" stroke="none" fill="black" >big, thick</text>
<text transform="translate(3.088,-0.21569) scale(1,-1) scale(0.0069444) " font-family="Helvetica,sans-serif" font-size="20px" stroke="none" fill="black" >circle</text>
<line x1="3.25" y1="1" x2="3.25" y2="1.5" stroke-width="0.0094118" />
<polygon points="3.225,1.4 3.25,1.5 3.275,1.4 " stroke-width="0.0094118" fill="black" />
<ellipse transform="translate(3.25,1.75) " rx="0.375" ry="0.25" stroke-width="0.0094118" stroke-dasharray="0.05, 0.05" />
<text transform="translate(2.9721,1.701) scale(1,-1) scale(0.0069444) " font-family="Helvetica,sans-serif" font-size="20px" stroke="none" fill="black" >loopback</text>
<line x1="2.875" y1="1.75" x2="0.375" y2="0.25" stroke-width="0.0094118" stroke-dasharray="0.0125, 0.0375" />
<polygon points="0.47361,0.28001 0.375,0.25 0.44789,0.32289 " stroke-width="0.0094118" fill="black" />
<polyline points="3.25,2 3.2506,2.0245 3.2524,2.049 3.2554,2.0734 3.2596,2.0975 3.265,2.1215 3.2715,2.1451 3.2792,2.1684 3.2881,2.1913 3.298,2.2138 3.309,2.2357 3.3211,2.2571 3.3343,2.2778 3.3484,2.2978 3.3635,2.3172 3.3795,2.3358 3.3964,2.3536 3.4142,2.3705 3.4328,2.3865 3.4522,2.4016 3.4722,2.4157 3.4929,2.4289 3.5143,2.441 3.5362,2.452 3.5587,2.4619 3.5816,2.4708 3.6049,2.4785 3.6285,2.485 3.6525,2.4904 3.6766,2.4946 3.701,2.4976 3.7255,2.4994 3.75,2.5 4.25,2.5 " stroke-width="0.0094118" />
<polygon points="4.15,2.525 4.25,2.5 4.15,2.475 " stroke-width="0.0094118" fill="black" />
<rect x="4.25" y="2.25" width="0.75" height="0.5" stroke-width="0.0094118" />
<text transform="translate(4.4784,2.451) scale(1,-1) scale(0.0069444) " font-family="Helvetica,sans-serif" font-size="20px" stroke="none" fill="black" >END</text>
</g>
</svg>
